<svg width="20" height="20" viewBox="0 0 20 20" fill="none" xmlns="http://www.w3.org/2000/svg">
<g clip-path="url(#clip0)">
<path d="M17.206 1.86584e-07H2.68C1.96922 1.86584e-07 1.28755 0.282357 0.784954 0.784954C0.282356 1.28755 0 1.96922 0 2.68L0 17.206C0 17.9168 0.282356 18.5984 0.784954 19.101C1.28755 19.6036 1.96922 19.886 2.68 19.886H9.844L9.856 12.78H8.01C7.89471 12.78 7.78412 12.7343 7.70241 12.653C7.6207 12.5717 7.57453 12.4613 7.574 12.346L7.565 10.055C7.56487 9.99774 7.57602 9.94102 7.59781 9.88807C7.6196 9.83513 7.6516 9.78699 7.69199 9.74641C7.73239 9.70583 7.78038 9.6736 7.83323 9.65157C7.88607 9.62954 7.94274 9.61813 8 9.618H9.844V7.4C9.79228 6.87601 9.85562 6.34705 10.0296 5.85009C10.2036 5.35313 10.484 4.90015 10.8512 4.52282C11.2184 4.14549 11.6636 3.85292 12.1557 3.66554C12.6478 3.47816 13.1748 3.40051 13.7 3.438H15.58C15.6956 3.438 15.8065 3.48394 15.8883 3.5657C15.9701 3.64747 16.016 3.75837 16.016 3.874V5.8C16.016 5.91546 15.9702 6.02621 15.8887 6.10795C15.8071 6.18968 15.6965 6.23574 15.581 6.236H14.431C13.185 6.236 12.944 6.828 12.944 7.697V9.618H15.682C15.7436 9.618 15.8044 9.63104 15.8606 9.65625C15.9167 9.68147 15.9669 9.71829 16.0078 9.7643C16.0487 9.8103 16.0794 9.86445 16.0979 9.92317C16.1164 9.98189 16.1222 10.0439 16.115 10.105L15.843 12.4C15.8303 12.5059 15.7792 12.6034 15.6994 12.6742C15.6196 12.745 15.5166 12.784 15.41 12.784H12.956L12.944 19.89H17.207C17.9178 19.89 18.5994 19.6076 19.102 19.105C19.6046 18.6024 19.887 17.9208 19.887 17.21V2.68C19.887 2.32797 19.8176 1.9794 19.6829 1.65418C19.5482 1.32896 19.3507 1.03347 19.1017 0.7846C18.8527 0.535726 18.5572 0.33834 18.2319 0.203716C17.9066 0.0690922 17.558 -0.000131167 17.206 1.86584e-07Z" fill="#ccc"/>
</g>
<defs>
<clipPath id="clip0">
<rect width="19.886" height="19.886" fill="#ccc"/>
</clipPath>
</defs>
</svg>
