<svg id="Group_138" data-name="Group 138" xmlns="http://www.w3.org/2000/svg" width="70" height="70" viewBox="0 0 70 70">
  <path id="Post" d="M0,0H70V70H0Z" transform="translate(0 0)" fill="#0c2936"/>
  <g id="share" transform="translate(19.718 20.544)">
    <g id="Group_133" data-name="Group 133" transform="translate(0 0)">
      <path id="Path_55" data-name="Path 55" d="M26.5,39a5.6,5.6,0,0,0-4.427,2.2L11.2,37.017c.011-.143.043-.28.043-.425a5.541,5.541,0,0,0-.08-.789L22.306,30.66a6.09,6.09,0,1,0-1.347-2.915L9.816,32.888a5.621,5.621,0,1,0,.232,7.127L20.923,44.2c-.011.143-.043.28-.043.425A5.622,5.622,0,1,0,26.5,39Z" transform="translate(0 -21.334)" fill="#fff"/>
    </g>
  </g>
</svg>
