<svg xmlns="http://www.w3.org/2000/svg" width="30" height="30" viewBox="0 0 30 30">
  <g id="Group_135" data-name="Group 135" transform="translate(-1260 -470)">
    <rect id="Post" width="30" height="30" transform="translate(1260 470)" fill="#ff0045"/>
    <g id="Group_134" data-name="Group 134" transform="translate(1266.916 476.473)">
      <g id="like-icon" transform="translate(0 1.364)">
        <path id="path" d="M8.817,14.873h0C20.687,9.3,16.246,2.6,16.246,2.6A4.345,4.345,0,0,0,12.531.5a4.484,4.484,0,0,0-3.8,2.1A4.243,4.243,0,0,0,5.022.5,4.176,4.176,0,0,0,1.308,2.6S-3.134,9.3,8.817,14.873C8.736,14.954,8.817,14.954,8.817,14.873Z" transform="translate(-0.5 -0.5)" fill="#fff"/>
      </g>
    </g>
  </g>
</svg>
