<svg width="20" height="20" viewBox="0 0 20 20" fill="none" xmlns="http://www.w3.org/2000/svg">
<g clip-path="url(#clip0)">
<path d="M13.962 0H5.924C4.35343 0.00185256 2.84771 0.626581 1.73715 1.73715C0.626581 2.84771 0.00185256 4.35343 0 5.924L0 13.962C0.00185256 15.5326 0.626581 17.0383 1.73715 18.1489C2.84771 19.2594 4.35343 19.8841 5.924 19.886H13.962C15.5326 19.8841 17.0383 19.2594 18.1489 18.1489C19.2594 17.0383 19.8841 15.5326 19.886 13.962V5.924C19.8841 4.35343 19.2594 2.84771 18.1489 1.73715C17.0383 0.626581 15.5326 0.00185256 13.962 0V0ZM17.886 13.962C17.886 15.0027 17.4726 16.0008 16.7367 16.7367C16.0008 17.4726 15.0027 17.886 13.962 17.886H5.924C4.88329 17.886 3.88521 17.4726 3.14931 16.7367C2.41342 16.0008 2 15.0027 2 13.962V5.924C2 4.88329 2.41342 3.88521 3.14931 3.14931C3.88521 2.41342 4.88329 2 5.924 2H13.962C15.0027 2 16.0008 2.41342 16.7367 3.14931C17.4726 3.88521 17.886 4.88329 17.886 5.924V13.962Z" fill="#ccc"/>
<path d="M9.94505 4.79999C8.92786 4.79959 7.9334 5.10084 7.08742 5.66563C6.24143 6.23042 5.58193 7.03339 5.1923 7.973C4.80268 8.91261 4.70043 9.94666 4.89848 10.9444C5.09654 11.9421 5.586 12.8587 6.30499 13.5782C7.02397 14.2978 7.94017 14.7879 8.93774 14.9868C9.93531 15.1856 10.9694 15.0842 11.9093 14.6953C12.8493 14.3064 13.6527 13.6475 14.2182 12.8019C14.7836 11.9564 15.0857 10.9622 15.0861 9.94499C15.085 8.58147 14.5431 7.27404 13.5794 6.30951C12.6156 5.34498 11.3086 4.80211 9.94505 4.79999V4.79999ZM9.94505 13.086C9.32321 13.0866 8.71517 12.9027 8.19787 12.5576C7.68057 12.2125 7.27726 11.7218 7.03897 11.1474C6.80068 10.573 6.73813 9.94086 6.85922 9.33092C6.98032 8.72099 7.27962 8.16068 7.71926 7.72091C8.1589 7.28113 8.71911 6.98165 9.329 6.86036C9.9389 6.73907 10.5711 6.80142 11.1455 7.03952C11.72 7.27763 12.2109 7.68078 12.5561 8.19798C12.9014 8.71517 13.0854 9.32315 13.0851 9.94499C13.0845 10.7777 12.7536 11.5762 12.1648 12.1651C11.5761 12.754 10.7778 13.0852 9.94505 13.086Z" fill="#ccc"/>
<path d="M15.096 6.071C15.3397 6.071 15.5779 5.99874 15.7805 5.86337C15.9831 5.72799 16.141 5.53558 16.2342 5.31046C16.3275 5.08534 16.3519 4.83763 16.3043 4.59864C16.2568 4.35966 16.1395 4.14014 15.9672 3.96784C15.7949 3.79554 15.5754 3.6782 15.3364 3.63067C15.0974 3.58313 14.8497 3.60753 14.6245 3.70078C14.3994 3.79402 14.207 3.95193 14.0716 4.15453C13.9363 4.35713 13.864 4.59533 13.864 4.839C13.864 5.16574 13.9938 5.47911 14.2249 5.71015C14.4559 5.9412 14.7693 6.071 15.096 6.071Z" fill="#ccc"/>
</g>
<defs>
<clipPath id="clip0">
<rect width="19.886" height="19.886" fill="#ccc"/>
</clipPath>
</defs>
</svg>
