<svg width="305" height="41" viewBox="0 0 305 41" fill="none" xmlns="http://www.w3.org/2000/svg">
<path d="M102.48 8V12.31H95.2902V32.67H90.9402V12.32H83.7402V8H102.48Z" fill="white"/>
<path d="M117.79 13.38C120.08 13.38 121.73 13.9 122.79 14.93C123.322 15.5208 123.731 16.2113 123.993 16.9615C124.256 17.7117 124.367 18.5066 124.32 19.3C124.367 20.0515 124.258 20.8045 124 21.5118C123.741 22.2191 123.34 22.8654 122.82 23.41C121.82 24.41 120.14 24.85 117.82 24.85H108.65V26.24C108.622 26.9405 108.866 27.6248 109.33 28.15C109.638 28.4252 109.999 28.6339 110.392 28.763C110.784 28.892 111.199 28.9387 111.61 28.9H123.41V32.67H111.61C110.563 32.6967 109.519 32.5341 108.53 32.19C107.743 31.907 107.029 31.4528 106.44 30.86C105.898 30.2929 105.494 29.6085 105.26 28.86C105.003 28.0382 104.878 27.1809 104.89 26.32V19.73C104.881 18.8759 105.006 18.0256 105.26 17.21C105.493 16.461 105.897 15.7764 106.44 15.21C107.029 14.6142 107.743 14.1565 108.53 13.87C109.521 13.5355 110.564 13.3764 111.61 13.4L117.79 13.38ZM108.58 21.82H117.64C118.428 21.8996 119.218 21.6782 119.85 21.2C120.067 20.9794 120.236 20.7162 120.346 20.427C120.456 20.1379 120.505 19.8291 120.49 19.52C120.504 19.1981 120.454 18.8767 120.342 18.5745C120.231 18.2722 120.06 17.9953 119.84 17.76C119.552 17.518 119.219 17.3351 118.861 17.2219C118.502 17.1086 118.125 17.0672 117.75 17.1H111.54C111.127 17.0583 110.71 17.1055 110.317 17.2383C109.923 17.3711 109.563 17.5865 109.26 17.87C108.803 18.3958 108.561 19.0739 108.58 19.77V21.82Z" fill="white"/>
<path d="M132.47 13.38L138.87 20.38L145.51 13.38H150.34L141.28 23L150.45 32.68H145.51L138.72 25.26L131.78 32.68H127L136.39 22.68L127.62 13.44L132.47 13.38Z" fill="white"/>
<path d="M157.79 13.38V20.94H170.17V13.38H174.08V32.67H170.17V24.67H157.79V32.67H153.92V13.38H157.79Z" fill="white"/>
<path d="M191.14 13.38C192.268 13.3253 193.395 13.51 194.446 13.9219C195.497 14.3338 196.449 14.9636 197.24 15.77C198.75 17.37 199.5 19.77 199.5 23.02C199.5 26.27 198.75 28.71 197.24 30.29C196.449 31.0945 195.496 31.7224 194.445 32.1326C193.393 32.5428 192.267 32.7259 191.14 32.6699H187.08C185.956 32.7231 184.834 32.5386 183.786 32.1285C182.738 31.7183 181.789 31.0919 181 30.29C179.5 28.71 178.75 26.2866 178.75 23.02C178.75 19.7533 179.5 17.33 181 15.75C181.793 14.9459 182.748 14.3191 183.801 13.9106C184.854 13.5021 185.982 13.3213 187.11 13.38H191.14ZM187.45 17.1C186.773 17.0409 186.092 17.1352 185.456 17.3759C184.821 17.6165 184.248 17.9973 183.78 18.49C182.901 19.8214 182.496 21.4101 182.63 23C182.63 25.1 183.01 26.6 183.78 27.51C184.25 27.999 184.824 28.376 185.459 28.6132C186.094 28.8503 186.775 28.9415 187.45 28.8799H190.77C191.445 28.943 192.126 28.8525 192.762 28.6153C193.397 28.378 193.971 28.0002 194.44 27.51C195.21 26.6 195.6 25.1 195.6 23C195.736 21.4023 195.327 19.8056 194.44 18.4699C193.973 17.9767 193.4 17.5955 192.764 17.3548C192.129 17.1141 191.447 17.0202 190.77 17.08L187.45 17.1Z" fill="white"/>
<path d="M216.93 7.99997C218.151 7.97097 219.366 8.1746 220.51 8.59997C221.448 8.9522 222.298 9.50509 223 10.22C223.646 10.887 224.134 11.6899 224.43 12.57C224.731 13.4796 224.883 14.4319 224.88 15.39C224.878 16.329 224.736 17.2625 224.46 18.16C224.189 19.0795 223.722 19.9291 223.09 20.65C222.41 21.4183 221.57 22.0292 220.63 22.44C219.47 22.9287 218.219 23.1639 216.96 23.13H209.29C209.206 23.1184 209.12 23.1264 209.04 23.1535C208.959 23.1805 208.886 23.2258 208.826 23.2859C208.766 23.346 208.721 23.4191 208.694 23.4996C208.666 23.5801 208.658 23.6658 208.67 23.75V32.67H204.36V22.91C204.254 21.8289 204.581 20.7499 205.27 19.91C205.684 19.5648 206.162 19.3056 206.677 19.1476C207.192 18.9896 207.734 18.936 208.27 18.99H217.14C217.678 19.0077 218.214 18.9088 218.71 18.7C219.12 18.5324 219.484 18.2683 219.77 17.93C220.04 17.6156 220.247 17.2524 220.38 16.86C220.513 16.4532 220.58 16.0279 220.58 15.6C220.597 14.7529 220.305 13.9286 219.76 13.28C219.433 12.9303 219.031 12.6588 218.584 12.4857C218.137 12.3126 217.658 12.2422 217.18 12.28H204.29V7.99997H216.93Z" fill="white"/>
<path d="M239.83 13.38C240.873 13.3576 241.911 13.5166 242.9 13.85C243.691 14.134 244.409 14.5919 245 15.19C245.546 15.7558 245.953 16.4404 246.19 17.19C246.435 18.0073 246.556 18.8567 246.55 19.71V28.77C246.562 29.3707 246.508 29.971 246.39 30.56C246.304 31.0047 246.096 31.4167 245.79 31.75C245.447 32.0809 245.022 32.3155 244.56 32.43C243.905 32.5892 243.233 32.6631 242.56 32.65H233.56C231.27 32.65 229.62 32.12 228.56 31.08C227.502 29.8976 226.955 28.3443 227.04 26.76C227.029 25.9695 227.147 25.1825 227.39 24.43C227.609 23.7667 227.991 23.1687 228.5 22.69C229.076 22.1803 229.759 21.8076 230.5 21.6C231.475 21.322 232.486 21.1906 233.5 21.21H242.67V19.77C242.692 19.0752 242.453 18.3973 242 17.87C241.695 17.5857 241.333 17.3699 240.938 17.2371C240.543 17.1042 240.124 17.0575 239.71 17.1H228.25V13.38H239.83ZM241.69 28.9C242.4 28.9 242.75 28.57 242.75 27.9V24.3H233.66C232.89 24.2216 232.119 24.4358 231.5 24.9C231.288 25.1215 231.124 25.3839 231.017 25.671C230.911 25.9582 230.864 26.2641 230.88 26.57C230.866 26.8787 230.914 27.1872 231.02 27.4773C231.126 27.7674 231.29 28.0335 231.5 28.26C231.787 28.4991 232.118 28.6789 232.476 28.7887C232.833 28.8986 233.208 28.9364 233.58 28.9H241.69Z" fill="white"/>
<path d="M255.72 32.67H252V17.4C251.973 16.8166 252.068 16.2339 252.28 15.6897C252.492 15.1454 252.816 14.6515 253.23 14.24C253.71 13.82 254.268 13.4987 254.872 13.2945C255.476 13.0903 256.114 13.0072 256.75 13.05C257.885 12.9773 259.006 13.3343 259.89 14.05C260.691 14.8183 261.239 15.8125 261.46 16.9L264.82 28.62C264.884 28.917 265.053 29.1812 265.295 29.3647C265.537 29.5482 265.837 29.6388 266.14 29.62C266.443 29.6405 266.742 29.5504 266.983 29.3664C267.224 29.1825 267.39 28.9172 267.45 28.62L270.78 16.9C271.021 15.8283 271.566 14.8491 272.35 14.08C273.243 13.3518 274.381 12.9939 275.53 13.08C276.815 12.9959 278.08 13.4237 279.05 14.27C279.463 14.682 279.785 15.1762 279.995 15.7205C280.206 16.2648 280.299 16.8472 280.27 17.43V32.67H276.55V17.58C276.55 16.82 276.09 16.45 275.16 16.45C274.858 16.4194 274.556 16.4986 274.308 16.6731C274.06 16.8476 273.883 17.1057 273.81 17.4L270.3 29.16C270.058 30.2179 269.549 31.1958 268.82 32C268.059 32.5712 267.132 32.88 266.18 32.88C265.228 32.88 264.302 32.5712 263.54 32C262.791 31.2019 262.26 30.2236 262 29.16L258.46 17.4C258.387 17.1057 258.21 16.8476 257.962 16.6731C257.714 16.4986 257.412 16.4194 257.11 16.45C256.18 16.45 255.72 16.82 255.72 17.58V32.67Z" fill="white"/>
<path d="M298.2 13.38C299.243 13.3576 300.282 13.5166 301.27 13.85C302.061 14.134 302.779 14.5919 303.37 15.19C303.918 15.7538 304.326 16.439 304.56 17.19C304.805 18.0073 304.927 18.8567 304.92 19.71V28.77C304.932 29.3707 304.879 29.971 304.76 30.56C304.674 31.0047 304.467 31.4167 304.16 31.75C303.82 32.0849 303.394 32.3201 302.93 32.43C302.276 32.5898 301.603 32.6638 300.93 32.65H291.93C289.64 32.65 287.99 32.12 286.98 31.08C285.926 29.896 285.383 28.3429 285.47 26.76C285.456 25.97 285.571 25.1831 285.81 24.43C286.033 23.766 286.418 23.1681 286.93 22.69C287.506 22.1803 288.19 21.8076 288.93 21.6C289.905 21.3207 290.916 21.1893 291.93 21.21H301.1V19.77C301.119 19.0739 300.877 18.3958 300.42 17.87C300.117 17.5865 299.757 17.3711 299.363 17.2383C298.97 17.1055 298.553 17.0583 298.14 17.1H286.62V13.38H298.2ZM300.07 28.9C300.77 28.9 301.13 28.57 301.13 27.9V24.3H292C291.233 24.2212 290.465 24.4355 289.85 24.9C289.635 25.1196 289.468 25.3814 289.36 25.6689C289.251 25.9564 289.204 26.2632 289.22 26.57C289.205 26.8797 289.253 27.1891 289.362 27.4796C289.47 27.7701 289.636 28.0356 289.85 28.26C290.136 28.5011 290.467 28.682 290.825 28.792C291.182 28.902 291.558 28.9387 291.93 28.9H300.07Z" fill="white"/>
<path d="M68.07 40.93H0V26.65H59.04L68.07 40.93Z" fill="#FBAE22"/>
<path d="M58.87 11.06C58.8657 12.4668 58.6534 13.8653 58.24 15.21C57.8353 16.5843 57.1357 17.8538 56.19 18.93C55.169 20.0805 53.9099 20.995 52.5 21.61C50.7591 22.3321 48.8837 22.6731 47 22.61H35.52C35.3932 22.5919 35.264 22.6034 35.1424 22.6436C35.0208 22.6838 34.9102 22.7516 34.8192 22.8416C34.7281 22.9317 34.6592 23.0416 34.6177 23.1628C34.5762 23.2839 34.5633 23.413 34.58 23.54V36.93H28.13V22.32C28.13 20.24 28.58 18.75 29.5 17.84C30.7341 16.8166 32.3234 16.324 33.92 16.47H47.22C48.0281 16.4847 48.8298 16.3244 49.57 16C50.1785 15.7435 50.7218 15.354 51.16 14.86C51.5587 14.3794 51.867 13.8305 52.07 13.24C52.2627 12.6285 52.3605 11.9911 52.36 11.35C52.3897 10.0816 51.9519 8.84654 51.13 7.87998C50.6376 7.3651 50.0364 6.96679 49.3703 6.71418C48.7041 6.46157 47.99 6.36105 47.28 6.41998H17.28V26.66H10.78V6.44998H0V-2.12323e-05H47C48.8277 -0.0441977 50.647 0.26128 52.36 0.899979C53.7501 1.43224 55.0112 2.2537 56.06 3.30998C57.0219 4.31493 57.7494 5.52047 58.19 6.83998C58.648 8.19949 58.8777 9.62543 58.87 11.06V11.06Z" fill="white"/>
</svg>
