<svg xmlns="http://www.w3.org/2000/svg" viewBox="0 0 316.63 40.93"><defs><style>.cls-1{fill:#0b2936;}.cls-2{fill:#fbae22;}</style></defs><title>Asset 4</title><g id="Layer_2" data-name="Layer 2"><g id="Layer_1-2" data-name="Layer 1"><path class="cls-1" d="M114.19,8v4.31H107V32.67h-4.35V12.32h-7.2V8Z"/><path class="cls-1" d="M129.5,13.38q3.44,0,5,1.55A5.93,5.93,0,0,1,136,19.3a5.46,5.46,0,0,1-1.5,4.11q-1.5,1.44-5,1.44h-9.17v1.39a2.72,2.72,0,0,0,.68,1.91,3,3,0,0,0,2.28.75h11.8v3.77h-11.8a8.72,8.72,0,0,1-3.09-.48,5.6,5.6,0,0,1-2.08-1.33,5.12,5.12,0,0,1-1.19-2,8.47,8.47,0,0,1-.36-2.54V19.73a8.53,8.53,0,0,1,.36-2.52,5.09,5.09,0,0,1,1.19-2,5.62,5.62,0,0,1,2.08-1.34,9,9,0,0,1,3.09-.47Zm-9.21,8.44h9.06a3.16,3.16,0,0,0,2.21-.62,2.24,2.24,0,0,0,.64-1.68,2.38,2.38,0,0,0-.66-1.76,2.84,2.84,0,0,0-2.08-.66h-6.21a2.91,2.91,0,0,0-2.28.77,2.78,2.78,0,0,0-.68,1.9Z"/><path class="cls-1" d="M144.18,13.38l6.39,7,6.65-7H162L153,23l9.17,9.68h-4.93l-6.79-7.42-6.94,7.42h-4.82l9.38-10-8.76-9.24Z"/><path class="cls-1" d="M169.5,13.38v7.56h12.38V13.38h3.91V32.67h-3.91v-8H169.5v8h-3.88V13.38Z"/><path class="cls-1" d="M202.85,13.38a8,8,0,0,1,6.1,2.39c1.51,1.6,2.26,4,2.26,7.25s-.75,5.69-2.26,7.27a8.06,8.06,0,0,1-6.1,2.38h-4.06a8,8,0,0,1-6.12-2.38q-2.23-2.37-2.24-7.27t2.24-7.27a8,8,0,0,1,6.12-2.37Zm-3.69,3.72a4.51,4.51,0,0,0-3.67,1.39A7.1,7.1,0,0,0,194.33,23c0,2.1.39,3.6,1.16,4.51a4.5,4.5,0,0,0,3.67,1.37h3.32a4.52,4.52,0,0,0,3.67-1.37c.77-.91,1.15-2.41,1.15-4.51a7.1,7.1,0,0,0-1.15-4.53,4.52,4.52,0,0,0-3.67-1.39Z"/><path class="cls-1" d="M228.63,8a9.58,9.58,0,0,1,3.58.6,6.92,6.92,0,0,1,2.47,1.61,6.23,6.23,0,0,1,1.43,2.35,8.9,8.9,0,0,1,.45,2.82,9.5,9.5,0,0,1-.42,2.77,6.76,6.76,0,0,1-1.37,2.49,7.06,7.06,0,0,1-2.46,1.79,8.85,8.85,0,0,1-3.68.69H221a.55.55,0,0,0-.62.62v8.92H216V22.91a4.1,4.1,0,0,1,.92-3,4,4,0,0,1,3-.92h8.88a3.76,3.76,0,0,0,1.57-.29,2.82,2.82,0,0,0,1.06-.77,3.05,3.05,0,0,0,.6-1.07,3.78,3.78,0,0,0,.2-1.26,3.45,3.45,0,0,0-.82-2.32,3.17,3.17,0,0,0-2.57-1H216V8Z"/><path class="cls-1" d="M251.54,13.38a9,9,0,0,1,3.07.47,5.62,5.62,0,0,1,2.1,1.34,5.07,5.07,0,0,1,1.18,2,8.21,8.21,0,0,1,.37,2.52v9.06a8.91,8.91,0,0,1-.16,1.79,2.46,2.46,0,0,1-.61,1.19,2.62,2.62,0,0,1-1.22.68,7.88,7.88,0,0,1-2,.22h-9c-2.29,0-3.94-.53-4.95-1.57a5.93,5.93,0,0,1-1.52-4.32,7,7,0,0,1,.35-2.33,4.2,4.2,0,0,1,1.11-1.74,5.09,5.09,0,0,1,2-1.09,10.23,10.23,0,0,1,3-.39h9.17V19.77a2.78,2.78,0,0,0-.68-1.9,2.91,2.91,0,0,0-2.28-.77H240V13.38ZM253.4,28.9c.71,0,1.06-.33,1.06-1V24.3h-9.1a3.05,3.05,0,0,0-2.15.6,2.25,2.25,0,0,0-.62,1.67,2.33,2.33,0,0,0,.62,1.69,2.8,2.8,0,0,0,2.08.64Z"/><path class="cls-1" d="M267.43,32.67h-3.69V17.4A4.21,4.21,0,0,1,265,14.24a4.88,4.88,0,0,1,3.53-1.19,4.53,4.53,0,0,1,3.14,1,5.53,5.53,0,0,1,1.57,2.85l3.36,11.72a1.36,1.36,0,0,0,2.63,0l3.32-11.72a5.71,5.71,0,0,1,1.58-2.82,4.49,4.49,0,0,1,3.17-1,4.88,4.88,0,0,1,3.53,1.19A4.21,4.21,0,0,1,292,17.4V32.67h-3.72V17.58c0-.76-.47-1.13-1.39-1.13a1.26,1.26,0,0,0-1.35.95L282,29.16A6.33,6.33,0,0,1,280.52,32a4.39,4.39,0,0,1-5.27,0,6.44,6.44,0,0,1-1.58-2.88l-3.5-11.76a1.27,1.27,0,0,0-1.35-.95c-.93,0-1.39.37-1.39,1.13Z"/><path class="cls-1" d="M309.91,13.38a9,9,0,0,1,3.07.47,5.62,5.62,0,0,1,2.1,1.34,5.09,5.09,0,0,1,1.19,2,8.53,8.53,0,0,1,.36,2.52v9.06a8.23,8.23,0,0,1-.16,1.79,2.44,2.44,0,0,1-.6,1.19,2.71,2.71,0,0,1-1.23.68,7.82,7.82,0,0,1-2,.22h-9c-2.29,0-3.94-.53-4.95-1.57a6,6,0,0,1-1.52-4.32,7.27,7.27,0,0,1,.35-2.33,4.2,4.2,0,0,1,1.11-1.74,5.09,5.09,0,0,1,2-1.09,10.23,10.23,0,0,1,3-.39h9.17V19.77a2.78,2.78,0,0,0-.67-1.9,2.92,2.92,0,0,0-2.29-.77H298.33V13.38Zm1.86,15.52c.71,0,1.06-.33,1.06-1V24.3h-9.09a3.08,3.08,0,0,0-2.16.6,2.25,2.25,0,0,0-.62,1.67,2.33,2.33,0,0,0,.62,1.69,2.82,2.82,0,0,0,2.08.64Z"/><polygon class="cls-2" points="68.07 40.93 0 40.93 0 26.65 59.04 26.65 68.07 40.93"/><path class="cls-1" d="M58.87,11.06a14.27,14.27,0,0,1-.63,4.15,9.85,9.85,0,0,1-2.05,3.72,10.6,10.6,0,0,1-3.69,2.68,13.2,13.2,0,0,1-5.5,1H35.52a.83.83,0,0,0-.94.93V36.93H28.13V22.32c0-2.08.45-3.57,1.37-4.48a6.06,6.06,0,0,1,4.42-1.37h13.3A5.6,5.6,0,0,0,49.57,16a4.42,4.42,0,0,0,1.59-1.14,5.17,5.17,0,0,0,.91-1.62,6.27,6.27,0,0,0,.29-1.89,5.17,5.17,0,0,0-1.23-3.47,4.78,4.78,0,0,0-3.85-1.46h-30V26.66H10.78V6.45H0V0H47a14.35,14.35,0,0,1,5.36.9,10.51,10.51,0,0,1,3.7,2.41,9.42,9.42,0,0,1,2.13,3.53A13,13,0,0,1,58.87,11.06Z"/></g></g></svg>