<svg xmlns="http://www.w3.org/2000/svg" viewBox="0 0 304.92 40.93"><defs><style>.cls-1{fill:#0b2936;}.cls-2{fill:#fbae22;}</style></defs><title>Asset 5</title><g id="Layer_2" data-name="Layer 2"><g id="Layer_1-2" data-name="Layer 1"><path class="cls-1" d="M102.48,8v4.31H95.29V32.67H90.94V12.32h-7.2V8Z"/><path class="cls-1" d="M117.79,13.38c2.29,0,3.94.52,5,1.55a6,6,0,0,1,1.53,4.37,5.46,5.46,0,0,1-1.5,4.11c-1,1-2.68,1.44-5,1.44h-9.17v1.39a2.72,2.72,0,0,0,.68,1.91,3,3,0,0,0,2.28.75h11.8v3.77h-11.8a8.7,8.7,0,0,1-3.08-.48,5.64,5.64,0,0,1-2.09-1.33,5.1,5.1,0,0,1-1.18-2,8.16,8.16,0,0,1-.37-2.54V19.73a8.21,8.21,0,0,1,.37-2.52,5.07,5.07,0,0,1,1.18-2,5.66,5.66,0,0,1,2.09-1.34,9,9,0,0,1,3.08-.47Zm-9.21,8.44h9.06a3.14,3.14,0,0,0,2.21-.62,2.24,2.24,0,0,0,.64-1.68,2.42,2.42,0,0,0-.65-1.76,2.86,2.86,0,0,0-2.09-.66h-6.21a2.91,2.91,0,0,0-2.28.77,2.78,2.78,0,0,0-.68,1.9Z"/><path class="cls-1" d="M132.47,13.38l6.4,7,6.64-7h4.83L141.28,23l9.17,9.68h-4.94l-6.79-7.42-6.94,7.42H127l9.39-10-8.77-9.24Z"/><path class="cls-1" d="M157.79,13.38v7.56h12.38V13.38h3.91V32.67h-3.91v-8H157.79v8h-3.87V13.38Z"/><path class="cls-1" d="M191.14,13.38a8,8,0,0,1,6.1,2.39c1.51,1.6,2.26,4,2.26,7.25s-.75,5.69-2.26,7.27a8,8,0,0,1-6.1,2.38h-4.06A8,8,0,0,1,181,30.29q-2.25-2.37-2.25-7.27T181,15.75a8,8,0,0,1,6.11-2.37Zm-3.69,3.72a4.52,4.52,0,0,0-3.67,1.39A7.1,7.1,0,0,0,182.63,23c0,2.1.38,3.6,1.15,4.51a4.52,4.52,0,0,0,3.67,1.37h3.32a4.5,4.5,0,0,0,3.67-1.37c.77-.91,1.16-2.41,1.16-4.51a7.1,7.1,0,0,0-1.16-4.53,4.51,4.51,0,0,0-3.67-1.39Z"/><path class="cls-1" d="M216.93,8a9.62,9.62,0,0,1,3.58.6A6.88,6.88,0,0,1,223,10.22a6.23,6.23,0,0,1,1.43,2.35,8.9,8.9,0,0,1,.45,2.82,9.5,9.5,0,0,1-.42,2.77,6.61,6.61,0,0,1-1.37,2.49,7.06,7.06,0,0,1-2.46,1.79,8.84,8.84,0,0,1-3.67.69h-7.67a.55.55,0,0,0-.62.62v8.92h-4.31V22.91a4.1,4.1,0,0,1,.91-3,4.05,4.05,0,0,1,3-.92h8.87a3.73,3.73,0,0,0,1.57-.29,2.75,2.75,0,0,0,1.06-.77,3.24,3.24,0,0,0,.61-1.07,4.05,4.05,0,0,0,.2-1.26,3.5,3.5,0,0,0-.82-2.32,3.19,3.19,0,0,0-2.58-1H204.29V8Z"/><path class="cls-1" d="M239.83,13.38a9,9,0,0,1,3.07.47,5.62,5.62,0,0,1,2.1,1.34,5.09,5.09,0,0,1,1.19,2,8.53,8.53,0,0,1,.36,2.52v9.06a8.23,8.23,0,0,1-.16,1.79,2.44,2.44,0,0,1-.6,1.19,2.71,2.71,0,0,1-1.23.68,7.82,7.82,0,0,1-2,.22h-9c-2.29,0-3.94-.53-5-1.57a6,6,0,0,1-1.52-4.32,7.27,7.27,0,0,1,.35-2.33,4.2,4.2,0,0,1,1.11-1.74,5.09,5.09,0,0,1,2-1.09,10.23,10.23,0,0,1,3-.39h9.17V19.77a2.78,2.78,0,0,0-.67-1.9,2.92,2.92,0,0,0-2.29-.77H228.25V13.38Zm1.86,15.52c.71,0,1.06-.33,1.06-1V24.3h-9.09a3.08,3.08,0,0,0-2.16.6,2.25,2.25,0,0,0-.62,1.67,2.33,2.33,0,0,0,.62,1.69,2.82,2.82,0,0,0,2.08.64Z"/><path class="cls-1" d="M255.72,32.67H252V17.4a4.18,4.18,0,0,1,1.23-3.16,4.85,4.85,0,0,1,3.52-1.19,4.53,4.53,0,0,1,3.14,1,5.46,5.46,0,0,1,1.57,2.85l3.36,11.72a1.27,1.27,0,0,0,1.32,1,1.25,1.25,0,0,0,1.31-1l3.33-11.72a5.7,5.7,0,0,1,1.57-2.82,4.5,4.5,0,0,1,3.18-1,4.87,4.87,0,0,1,3.52,1.19,4.17,4.17,0,0,1,1.22,3.16V32.67h-3.72V17.58c0-.76-.46-1.13-1.39-1.13a1.26,1.26,0,0,0-1.35.95l-3.51,11.76A6.33,6.33,0,0,1,268.82,32a4.4,4.4,0,0,1-5.28,0A6.35,6.35,0,0,1,262,29.16L258.46,17.4a1.26,1.26,0,0,0-1.35-.95c-.93,0-1.39.37-1.39,1.13Z"/><path class="cls-1" d="M298.2,13.38a9,9,0,0,1,3.07.47,5.62,5.62,0,0,1,2.1,1.34,5,5,0,0,1,1.19,2,8.53,8.53,0,0,1,.36,2.52v9.06a8.23,8.23,0,0,1-.16,1.79,2.44,2.44,0,0,1-.6,1.19,2.61,2.61,0,0,1-1.23.68,7.76,7.76,0,0,1-2,.22h-9c-2.29,0-3.94-.53-4.95-1.57a6,6,0,0,1-1.51-4.32,7.28,7.28,0,0,1,.34-2.33,4.22,4.22,0,0,1,1.12-1.74,5.09,5.09,0,0,1,2-1.09,10.14,10.14,0,0,1,3-.39h9.17V19.77a2.78,2.78,0,0,0-.68-1.9,2.91,2.91,0,0,0-2.28-.77H286.62V13.38Zm1.87,15.52c.7,0,1.06-.33,1.06-1V24.3H292a3.05,3.05,0,0,0-2.15.6,2.22,2.22,0,0,0-.63,1.67,2.29,2.29,0,0,0,.63,1.69,2.78,2.78,0,0,0,2.08.64Z"/><polygon class="cls-2" points="68.07 40.93 0 40.93 0 26.65 59.04 26.65 68.07 40.93"/><path class="cls-1" d="M58.87,11.06a14.27,14.27,0,0,1-.63,4.15,9.85,9.85,0,0,1-2.05,3.72,10.6,10.6,0,0,1-3.69,2.68,13.2,13.2,0,0,1-5.5,1H35.52a.83.83,0,0,0-.94.93V36.93H28.13V22.32c0-2.08.45-3.57,1.37-4.48a6.06,6.06,0,0,1,4.42-1.37h13.3A5.6,5.6,0,0,0,49.57,16a4.42,4.42,0,0,0,1.59-1.14,5.17,5.17,0,0,0,.91-1.62,6.27,6.27,0,0,0,.29-1.89,5.17,5.17,0,0,0-1.23-3.47,4.78,4.78,0,0,0-3.85-1.46h-30V26.66H10.78V6.45H0V0H47a14.35,14.35,0,0,1,5.36.9,10.51,10.51,0,0,1,3.7,2.41,9.42,9.42,0,0,1,2.13,3.53A13,13,0,0,1,58.87,11.06Z"/></g></g></svg>