<svg xmlns="http://www.w3.org/2000/svg" viewBox="0 0 84.59 50.87"><defs><style>.cls-1{fill:#0b2936;}.cls-2{fill:#fbae22;}</style></defs><title>Asset 1</title><g id="Layer_2" data-name="Layer 2"><g id="Layer_1-2" data-name="Layer 1"><path class="cls-1" d="M34.88,0V8H21.49V45.9H13.4V8H0V0Z"/><polygon class="cls-2" points="84.59 50.87 0 50.87 0 33.13 73.38 33.13 84.59 50.87"/><path class="cls-1" d="M58.41,0a17.8,17.8,0,0,1,6.67,1.12,13.29,13.29,0,0,1,4.59,3A11.65,11.65,0,0,1,72.32,8.5a16.44,16.44,0,0,1,.85,5.24,17.75,17.75,0,0,1-.78,5.16,12.74,12.74,0,0,1-2.55,4.63,13.28,13.28,0,0,1-4.59,3.33,16.4,16.4,0,0,1-6.84,1.29H44.13A1,1,0,0,0,43,29.31V45.9H35V27.74q0-3.87,1.7-5.57t5.51-1.7H58.68a7.06,7.06,0,0,0,2.93-.55,5.52,5.52,0,0,0,2-1.42,6,6,0,0,0,1.12-2,7.37,7.37,0,0,0,.38-2.35,6.44,6.44,0,0,0-1.53-4.31A6,6,0,0,0,58.75,8H34.88V0Z"/></g></g></svg>