<svg xmlns="http://www.w3.org/2000/svg" xmlns:xlink="http://www.w3.org/1999/xlink" width="19.886" height="19.886" viewBox="0 0 19.886 19.886">
  <defs>
    <clipPath id="clip-path">
      <rect id="Rectangle_40" data-name="Rectangle 40" width="19.886" height="19.886" fill="#0c2936"/>
    </clipPath>
  </defs>
  <g id="Mask_Group_2" data-name="Mask Group 2" clip-path="url(#clip-path)">
    <g id="insta">
      <path id="Path_28" data-name="Path 28" d="M13.962,0H5.924A5.931,5.931,0,0,0,0,5.924v8.038a5.931,5.931,0,0,0,5.924,5.924h8.038a5.931,5.931,0,0,0,5.924-5.924V5.924A5.931,5.931,0,0,0,13.962,0Zm3.924,13.962a3.924,3.924,0,0,1-3.924,3.924H5.924A3.924,3.924,0,0,1,2,13.962V5.924A3.924,3.924,0,0,1,5.924,2h8.038a3.924,3.924,0,0,1,3.924,3.924Z" fill="#0c2936"/>
      <path id="Path_29" data-name="Path 29" d="M14.8,9.655A5.143,5.143,0,1,0,19.941,14.8,5.149,5.149,0,0,0,14.8,9.655Zm0,8.286A3.143,3.143,0,1,1,17.94,14.8,3.143,3.143,0,0,1,14.8,17.941Z" transform="translate(-4.855 -4.855)" fill="#0c2936"/>
      <path id="Path_30" data-name="Path 30" d="M29.119,9.718a1.232,1.232,0,1,0-1.232-1.232A1.232,1.232,0,0,0,29.119,9.718Z" transform="translate(-14.023 -3.647)" fill="#0c2936"/>
    </g>
  </g>
</svg>
