<svg width="20" height="18" viewBox="0 0 20 18" fill="none" xmlns="http://www.w3.org/2000/svg">
<path d="M0.348653 8.29919L4.93065 10.0092L6.70465 15.7092C6.73069 15.7937 6.77712 15.8705 6.83986 15.9329C6.90259 15.9952 6.9797 16.0411 7.06438 16.0666C7.14907 16.0921 7.23872 16.0964 7.32544 16.079C7.41216 16.0617 7.49328 16.0233 7.56165 15.9672L10.1157 13.8852C10.246 13.779 10.4077 13.7189 10.5757 13.7142C10.7438 13.7095 10.9086 13.7605 11.0447 13.8592L15.6517 17.2042C15.7246 17.2572 15.8097 17.2911 15.8992 17.3027C15.9886 17.3144 16.0795 17.3035 16.1636 17.2709C16.2478 17.2384 16.3224 17.1854 16.3808 17.1166C16.4391 17.0478 16.4793 16.9655 16.4977 16.8772L19.8717 0.650191C19.8915 0.55515 19.8853 0.456526 19.8538 0.364699C19.8223 0.272873 19.7666 0.191242 19.6926 0.128398C19.6186 0.0655548 19.529 0.0238232 19.4333 0.00759639C19.3376 -0.0086304 19.2392 0.00124785 19.1487 0.0361913L0.343653 7.29119C0.241973 7.33088 0.154707 7.40045 0.0933605 7.49073C0.0320135 7.58101 -0.000534769 7.68776 6.64635e-06 7.79691C0.000548062 7.90606 0.0341537 8.01248 0.0963933 8.10215C0.158633 8.19181 0.246584 8.26051 0.348653 8.29919V8.29919ZM6.41865 9.09919L15.3737 3.58319C15.4066 3.56301 15.4459 3.55577 15.4839 3.5629C15.5219 3.57002 15.5559 3.59099 15.5793 3.62174C15.6027 3.6525 15.6138 3.69084 15.6106 3.72936C15.6073 3.76787 15.5899 3.8038 15.5617 3.83019L8.17165 10.6992C7.91196 10.9407 7.74408 11.2648 7.69665 11.6162L7.44465 13.4822C7.43616 13.5331 7.41089 13.5796 7.37287 13.6145C7.33484 13.6493 7.28625 13.6704 7.23484 13.6745C7.18342 13.6785 7.13214 13.6652 7.08915 13.6367C7.04617 13.6082 7.01396 13.5661 6.99765 13.5172L6.02965 10.1172C5.97425 9.92832 5.9823 9.72649 6.05256 9.54262C6.12282 9.35875 6.25141 9.20299 6.41865 9.09919V9.09919Z" fill="#ccc"/>
</svg>
