<svg xmlns="http://www.w3.org/2000/svg" xmlns:xlink="http://www.w3.org/1999/xlink" width="19.886" height="19.886" viewBox="0 0 19.886 19.886">
  <defs>
    <clipPath id="clip-path">
      <rect id="Rectangle_40" data-name="Rectangle 40" width="19.886" height="19.886" fill="#0c2936"/>
    </clipPath>
  </defs>
  <g id="Mask_Group_4" data-name="Mask Group 4" clip-path="url(#clip-path)">
    <path id="twit" d="M19.57,1.966a7.759,7.759,0,0,1-1.371.472A4.381,4.381,0,0,0,19.327.6.226.226,0,0,0,19,.336a7.82,7.82,0,0,1-2.1.885.523.523,0,0,1-.131.017.549.549,0,0,1-.367-.143A4.235,4.235,0,0,0,13.568,0,4.494,4.494,0,0,0,12.21.214a4.208,4.208,0,0,0-2.8,3.058,4.773,4.773,0,0,0-.1,1.613.16.16,0,0,1-.157.178H9.137A11.174,11.174,0,0,1,1.41.844a.222.222,0,0,0-.367.029A4.46,4.46,0,0,0,1.74,6.2a3.793,3.793,0,0,1-.978-.387.224.224,0,0,0-.333.2,4.394,4.394,0,0,0,2.5,4.041H2.842a3.778,3.778,0,0,1-.722-.07.227.227,0,0,0-.256.295,4.326,4.326,0,0,0,3.394,2.986A7.792,7.792,0,0,1,.827,14.638h-.5a.33.33,0,0,0-.321.253.35.35,0,0,0,.163.383A11.574,11.574,0,0,0,6.086,16.9a11.714,11.714,0,0,0,5.053-1.1,11.184,11.184,0,0,0,3.7-2.831A12.469,12.469,0,0,0,17.1,9.1a12.476,12.476,0,0,0,.77-4.24V4.8a.752.752,0,0,1,.273-.58,8.6,8.6,0,0,0,1.7-1.912A.227.227,0,0,0,19.57,1.966Z" transform="translate(0 1.491)" fill="#0c2936"/>
  </g>
</svg>
